<?xml version="1.0" encoding="UTF-8" standalone="no"?>
<svg width="402px" height="48px" viewBox="0 0 402 48" version="1.1" xmlns="http://www.w3.org/2000/svg" xmlns:xlink="http://www.w3.org/1999/xlink">
    <!-- Generator: Sketch 3.8.3 (29802) - http://www.bohemiancoding.com/sketch -->
    <title>headline</title>
    <desc>Created with Sketch.</desc>
    <defs></defs>
    <g id="Website" stroke="none" stroke-width="1" fill="none" fill-rule="evenodd">
        <g id="hello-skyliner" transform="translate(-399.000000, -250.000000)" fill="#FFFFFF">
            <g id="content" transform="translate(300.000000, 250.000000)">
                <g id="headline" transform="translate(99.000000, 0.000000)">
                    <path d="M383.652,14.744 L387.68,14.744 L387.68,10.712 C387.68,7 388.64,4.184 390.432,2.456 C391.968,0.92 394.08,0.088 396.768,0.088 C398.752,0.088 400.096,0.408 401.44,0.92 L401.44,2.904 C399.968,2.328 398.432,2.072 396.768,2.072 C392.288,2.072 389.728,4.824 389.728,10.904 L389.728,14.744 L401.312,14.744 L401.312,16.6 L389.728,16.6 L389.728,47 L387.68,47 L387.68,16.6 L383.652,16.6 L372.968,16.6 L372.968,47 L370.92,47 L370.92,16.6 L365.992,16.6 L365.992,14.744 L370.92,14.744 L370.92,10.712 C370.92,7 371.88,4.184 373.672,2.456 C375.208,0.92 377.32,0.088 380.008,0.088 C381.992,0.088 383.336,0.408 384.68,0.92 L384.68,2.904 C383.208,2.328 381.672,2.072 380.008,2.072 C375.528,2.072 372.968,4.824 372.968,10.904 L372.968,14.744 L383.652,14.744 Z" id="ff"></path>
                    <path d="M347.504,47.768 C357.424,47.768 364.208,39.896 364.208,30.872 L364.208,30.744 C364.208,21.72 357.424,13.976 347.568,13.976 C337.648,13.976 330.8,21.848 330.8,30.872 L330.8,31 C330.8,40.024 337.648,47.768 347.504,47.768 Z M347.568,45.848 C339.184,45.848 333.04,39.064 333.04,30.936 L333.04,30.808 C333.04,22.68 338.928,15.896 347.44,15.896 C355.824,15.896 362.032,22.68 362.032,30.808 L362.032,30.936 C362.032,39.064 356.08,45.848 347.568,45.848 Z" id="o"></path>
                    <path d="M311.42,14.744 L316.256,14.744 L316.256,3.928 L318.304,3.928 L318.304,14.744 L330.016,14.744 L330.016,16.6 L318.304,16.6 L318.304,38.552 C318.304,43.288 320.8,45.656 325.024,45.656 C326.624,45.656 328.224,45.272 329.888,44.504 L329.888,46.488 C328.288,47.256 326.624,47.576 324.832,47.576 C319.648,47.576 316.256,44.568 316.256,38.744 L316.256,16.6 L311.42,16.6 L299.928,16.6 L299.928,47 L297.88,47 L297.88,16.6 L292.952,16.6 L292.952,14.744 L297.88,14.744 L297.88,10.712 C297.88,7 298.84,4.184 300.632,2.456 C302.168,0.92 304.28,0.088 306.968,0.088 C308.952,0.088 310.296,0.408 311.64,0.92 L311.64,2.904 C310.168,2.328 308.632,2.072 306.968,2.072 C302.488,2.072 299.928,4.824 299.928,10.904 L299.928,14.744 L311.42,14.744 Z" id="ft"></path>
                    <polygon id="i" points="281.368 47 283.48 47 283.48 14.744 281.368 14.744"></polygon>
                    <polygon id="i" points="281.048 5.848 283.8 5.848 283.8 1.944 281.048 1.944"></polygon>
                    <polygon id="l" points="266.584 47 268.696 47 268.696 0.28 266.584 0.28"></polygon>
                    <path d="M224.216,47.768 C230.104,47.768 234.456,44.952 237.4,41.112 L235.864,39.896 C233.304,43.224 229.272,45.848 224.28,45.848 C217.048,45.848 210.84,40.408 210.456,31.64 L238.424,31.64 L238.424,30.936 C238.424,22.296 233.368,13.976 223.64,13.976 C214.744,13.976 208.216,21.272 208.216,30.744 L208.216,30.872 C208.216,41.176 215.512,47.768 224.216,47.768 Z M210.456,29.784 C210.84,21.848 216.216,15.896 223.512,15.896 C231.576,15.896 235.864,22.744 236.184,29.784 L210.456,29.784 Z" id="e"></path>
                    <polygon id="v" points="189.496 47.256 191.16 47.256 205.88 14.744 203.64 14.744 190.328 44.76 177.08 14.744 174.712 14.744"></polygon>
                    <path d="M155.16,47.768 C162.584,47.768 167.064,43.8 168.728,40.28 L168.728,47 L170.776,47 L170.776,26.904 C170.776,22.936 169.624,19.864 167.576,17.752 C165.208,15.384 161.752,14.232 157.336,14.232 C153.048,14.232 149.528,15.32 145.944,17.048 L146.712,18.84 C149.912,17.24 153.24,16.152 157.208,16.152 C164.376,16.152 168.728,19.736 168.728,27.032 L168.728,29.208 C165.592,28.184 161.688,27.416 157.208,27.416 C149.016,27.416 142.936,31.064 142.936,37.784 L142.936,37.912 C142.936,44.44 148.952,47.768 155.16,47.768 Z M155.288,45.848 C149.912,45.848 145.112,43.096 145.112,37.784 L145.112,37.656 C145.112,32.344 150.04,29.336 157.144,29.336 C161.944,29.336 165.656,30.104 168.792,31.128 L168.792,35.096 C168.792,40.856 163.096,45.848 155.288,45.848 Z" id="a"></path>
                    <path d="M110.584,47 L112.632,47 L112.632,28.824 C112.632,21.464 118.008,15.896 124.792,15.896 C132.28,15.896 136.312,20.952 136.312,28.44 L136.312,47 L138.36,47 L138.36,28.12 C138.36,19.736 133.56,13.976 125.048,13.976 C118.136,13.976 114.104,18.584 112.632,22.424 L112.632,0.28 L110.584,0.28 L110.584,47 Z" id="h"></path>
                    <path d="M89.784,41.112 L88.248,39.896 C85.688,43.224 81.656,45.848 76.664,45.848 C69.432,45.848 63.224,40.408 62.84,31.64 L90.808,31.64 L90.808,30.936 C90.808,22.296 85.752,13.976 76.024,13.976 C67.128,13.976 60.6,21.272 60.6,30.744 L60.6,30.872 C60.6,41.176 67.896,47.768 76.6,47.768 C82.488,47.768 86.84,44.952 89.784,41.112 Z M62.84,29.784 C63.224,21.848 68.6,15.896 75.896,15.896 C83.96,15.896 88.248,22.744 88.568,29.784 L62.84,29.784 Z" id="e"></path>
                    <polygon id="w" points="16.056 47.32 17.848 47.32 31.224 6.168 44.664 47.32 46.456 47.32 61.944 2.2 59.704 2.2 45.624 43.928 32.12 2.072 30.456 2.072 17.016 43.864 2.936 2.2 0.568 2.2"></polygon>
                </g>
            </g>
        </g>
    </g>
</svg>