<?xml version="1.0" encoding="UTF-8" standalone="no"?>
<svg width="30px" height="30px" viewBox="0 0 30 30" version="1.1" xmlns="http://www.w3.org/2000/svg" xmlns:xlink="http://www.w3.org/1999/xlink">
    <!-- Generator: Sketch 3.8.2 (29753) - http://www.bohemiancoding.com/sketch -->
    <title>logo-inverse</title>
    <desc>Created with Sketch.</desc>
    <defs></defs>
    <g id="Symbols" stroke="none" stroke-width="1" fill="none" fill-rule="evenodd">
        <g id="logo-inverse" fill="#FFFFFF">
            <path d="M9.96024752,21.9704647 C9.73434134,21.9226871 9.50191863,22.0240336 9.38317307,22.2238309 C8.22178361,24.1696829 6.6462328,24.0972926 6.02643892,23.9684378 C5.89900467,23.3632547 5.8012568,21.7923845 7.77286748,20.6145939 C7.97053538,20.4973216 8.0726276,20.2656725 8.02701193,20.0390908 C7.98139626,19.812509 7.79603734,19.6402201 7.56506275,19.61054 C5.36682184,19.3209787 3.51033643,19.9667004 2.2475788,21.4528739 C0.777016446,23.1837267 0.154326331,26.0453163 0.62424015,28.9235558 C0.662615239,29.1508614 0.842905749,29.3318373 1.07243222,29.3716519 C1.6922261,29.4722745 2.32794927,29.5243955 2.96005214,29.5243955 L2.96005214,29.5243955 C5.56955815,29.5243955 7.81631097,28.667294 9.12613239,27.1775011 C10.2136679,25.9374548 10.6379661,24.341248 10.3874419,22.4294194 C10.3584796,22.2021138 10.1854296,22.0175185 9.96024752,21.9704647 L9.96024752,21.9704647 Z M29.7475827,0.253787486 C29.5354336,0.0416838232 29.0956595,0.141885044 29.0956595,0.141885044 C28.2962992,0.0513971333 27.4889742,6.00954224e-16 26.6946823,6.00954224e-16 C21.3634413,6.00954224e-16 16.427536,1.99869697 12.79928,5.62617634 C12.3481917,6.07716809 11.929686,6.55639207 11.5271096,7.05009411 C9.38824148,6.23135949 7.55854623,6.15969307 5.95258498,6.84812509 C3.09400292,8.07224555 1.41853208,11.5788331 0.0363048328,15.1838714 C-0.0513062182,15.4126249 0.0232717839,15.6703344 0.220939692,15.815839 C0.317963501,15.8867815 0.430192533,15.9215289 0.543145624,15.9215289 C0.66189118,15.9215289 0.780636737,15.8802664 0.878384604,15.8057044 C0.913139401,15.7774721 4.17864221,13.2778341 7.68525643,14.8646301 L7.008986,17.3215578 C6.94599293,17.5517591 7.04156862,17.7964384 7.24285682,17.9238454 C8.48968517,18.7114521 11.2881704,21.5093384 12.0744977,22.7551759 C12.1751418,22.9151585 12.3503639,23.0085421 12.5342747,23.0085421 C12.5806144,23.0085421 12.6305744,23.001303 12.6769142,22.9889967 L15.135092,22.3143188 C16.7178834,25.8020848 14.3045972,28.9850876 14.1959884,29.1219053 C14.0461084,29.3144636 14.041764,29.5830317 14.1865757,29.7792095 C14.2922882,29.9203706 14.4544772,30 14.6239069,30 C14.688348,30 14.7549614,29.9869697 14.8179545,29.9630809 C18.4237647,28.5818735 21.9296548,26.9074852 23.1562095,24.0473433 C23.844789,22.4410019 23.7723831,20.6116983 22.9527492,18.4725641 C23.4465569,18.0707977 23.9266075,17.6523816 24.3776958,17.2013899 C28.5699932,13.0099899 30.5575332,7.08484147 29.8646094,0.908498625 C29.8646094,0.908498625 29.9597318,0.465891149 29.7475827,0.253787486 Z M26.6946823,1.08585493 C27.3948467,1.08585493 28.1044238,1.1234979 28.8089325,1.19516433 C28.9110247,2.17532938 28.9356427,3.14608368 28.8972676,4.10453163 C28.1399026,4.01404372 27.4216368,3.69118286 26.8670082,3.13667294 C26.3094833,2.58071522 25.9858293,1.86984219 25.8996663,1.10467642 C26.1639476,1.09381787 26.4282289,1.08585493 26.6946823,1.08585493 L26.6946823,1.08585493 Z M13.5667818,6.39423773 C16.5585906,3.40306935 20.4945713,1.586796 24.8048902,1.17561894 C24.8932253,2.01969017 25.2197756,2.82539453 25.7418216,3.49572897 C25.7403735,3.49717678 25.7382013,3.49717678 25.7367532,3.49862458 L22.3648138,6.87056609 C21.6168616,6.28492833 20.6777581,5.93311134 19.6568359,5.93311134 C17.2247242,5.93311134 15.2444248,7.91226292 15.2444248,10.344578 C15.2444248,11.3652816 15.5963171,12.3041842 16.1806321,13.0519763 L12.2468235,16.9849428 C11.2135924,15.995367 10.1130238,15.0991748 8.95742681,14.3289417 C9.79516223,11.3131606 11.3851942,8.57608224 13.5667818,6.39423773 L13.5667818,6.39423773 Z M22.9824356,10.344578 C22.9824356,12.178225 21.4894274,13.6701897 19.6561118,13.6701897 C17.8220722,13.6701897 16.3297881,12.178225 16.3297881,10.344578 C16.3297881,8.51093094 17.8220722,7.01896627 19.6561118,7.01896627 C21.4901515,7.01896627 22.9824356,8.51093094 22.9824356,10.344578 L22.9824356,10.344578 Z M1.64299014,14.0929492 C2.82392918,11.272622 4.25756456,8.75561025 6.38195153,7.84638772 C7.64036481,7.30635587 9.10730687,7.34979007 10.8334618,7.95569712 C9.56853199,9.71550601 8.60553449,11.6903142 7.99008496,13.8012162 C5.44864042,12.7117417 3.08314204,13.4001737 1.64299014,14.0929492 L1.64299014,14.0929492 Z M12.7645252,21.8387143 C11.7783578,20.4799479 9.52002009,18.2235413 8.16096271,17.2368612 L8.65477045,15.4437527 C9.78719759,16.2284639 10.8711128,17.1217605 11.8746576,18.1272622 C12.8810986,19.1342117 13.7767587,20.217171 14.5587416,21.3450123 L12.7645252,21.8387143 L12.7645252,21.8387143 Z M22.1584572,23.6202403 C21.248316,25.7427248 18.7322135,27.1775011 15.9120065,28.3581873 C16.6027581,26.9176198 17.2877172,24.5519039 16.1980095,22.0110033 C18.3115356,21.3927899 20.2889388,20.4299986 22.0505726,19.1631678 C22.6566093,20.8947445 22.6986047,22.3592008 22.1584572,23.6202403 L22.1584572,23.6202403 Z M15.6745154,21.0431446 C14.9048415,19.8892428 14.0084573,18.7896337 13.0157734,17.7530042 L16.9503061,13.8200376 C17.6982583,14.4056754 18.6373619,14.7574924 19.658284,14.7574924 C22.0896717,14.7574924 24.069247,12.7783408 24.069247,10.344578 C24.069247,9.32459823 23.7188028,8.38641957 23.1344878,7.63862748 L26.5057031,4.26668597 C26.5071512,4.26523816 26.5071512,4.26379036 26.5085993,4.26234255 C27.1776292,4.78427682 27.9820579,5.11220501 28.8234136,5.20269292 C28.4121485,9.48530476 26.6099675,13.4341972 23.60947,16.4340524 C21.4264343,18.615173 18.6909422,20.2048646 15.6745154,21.0431446 L15.6745154,21.0431446 Z" id="Shape"></path>
        </g>
    </g>
</svg>